<svg xmlns="http://www.w3.org/2000/svg" width="16" height="16" viewBox="0 0 16 16" fill="none"><path d="M12.7852 1.98207C11.5071 0.703908 9.80768 0 8.00011 0C6.19255 0 4.4931 0.703908 3.21498 1.98207C1.93682 3.26026 1.23291 4.95963 1.23291 6.76717C1.23291 10.4238 4.69035 13.4652 6.54783 15.0992C6.80595 15.3262 7.02886 15.5223 7.20645 15.6882C7.42895 15.896 7.71455 16 8.00008 16C8.28567 16 8.57121 15.896 8.79374 15.6882C8.97133 15.5223 9.19424 15.3262 9.45236 15.0992C11.3098 13.4652 14.7673 10.4238 14.7673 6.76717C14.7673 4.95963 14.0634 3.26026 12.7852 1.98207ZM8.8333 14.3955C8.56952 14.6275 8.34174 14.8279 8.15392 15.0033C8.06764 15.0838 7.93252 15.0839 7.8462 15.0033C7.65842 14.8278 7.43061 14.6275 7.16683 14.3954C5.42057 12.8593 2.1701 9.99999 2.1701 6.7672C2.1701 3.55257 4.78539 0.937283 8.00005 0.937283C11.2147 0.937283 13.83 3.55257 13.83 6.7672C13.83 9.99999 10.5796 12.8593 8.8333 14.3955Z" fill="#1D1D1D"></path><path d="M8.00029 3.5293C6.35588 3.5293 5.01807 4.86708 5.01807 6.51149C5.01807 8.1559 6.35588 9.49368 8.00029 9.49368C9.6447 9.49368 10.9825 8.1559 10.9825 6.51149C10.9825 4.86708 9.6447 3.5293 8.00029 3.5293ZM8.00029 8.5564C6.8727 8.5564 5.95532 7.63902 5.95532 6.51146C5.95532 5.38389 6.8727 4.46652 8.00029 4.46652C9.12789 4.46652 10.0452 5.38389 10.0452 6.51146C10.0452 7.63902 9.12789 8.5564 8.00029 8.5564Z" fill="#1D1D1D"></path></svg>