<svg xmlns="http://www.w3.org/2000/svg" width="16" height="18" viewBox="0 0 16 18" fill="none"><g clip-path="url(#clip0_500_4810)"><path d="M13.8701 0.983276H2.15493C1.38989 0.983276 0.767578 1.60559 0.767578 2.37063V15.6272C0.767578 16.3923 1.38989 17.0146 2.15493 17.0146H13.8701C14.6351 17.0146 15.2574 16.3923 15.2574 15.6272V2.37063C15.2574 1.60559 14.6351 0.983276 13.8701 0.983276ZM1.69248 2.37063C1.69248 2.11561 1.89992 1.90818 2.15493 1.90818H13.8701C14.1251 1.90818 14.3325 2.11561 14.3325 2.37063V4.22031H1.69248V2.37063ZM14.3325 15.6272C14.3325 15.8822 14.1251 16.0897 13.8701 16.0897H2.15493C1.89992 16.0897 1.69248 15.8822 1.69248 15.6272V5.14521H14.3325V15.6272Z" fill="#1D1D1D"></path><path d="M11.0941 2.60181H10.1695C9.9141 2.60181 9.70703 2.80888 9.70703 3.06426C9.70703 3.31964 9.9141 3.52671 10.1695 3.52671H11.0941C11.3495 3.52671 11.5566 3.31964 11.5566 3.06426C11.5566 2.80888 11.3495 2.60181 11.0941 2.60181Z" fill="#1D1D1D"></path><path d="M13.5609 2.60181H12.6363C12.3809 2.60181 12.1738 2.80888 12.1738 3.06426C12.1738 3.31964 12.3809 3.52671 12.6363 3.52671H13.5609C13.8163 3.52671 14.0233 3.31964 14.0233 3.06426C14.0233 2.80888 13.8163 2.60181 13.5609 2.60181Z" fill="#1D1D1D"></path><path d="M3.54102 10.6174C3.54102 13.0823 5.54627 15.0877 8.01117 15.0877C10.4762 15.0877 12.4815 13.0823 12.4815 10.6174C12.4815 10.4974 12.4766 10.3786 12.4673 10.261C12.4673 10.2604 12.4671 10.2598 12.4671 10.2593C12.284 7.96125 10.3556 6.14716 8.01117 6.14716C5.66687 6.14716 3.73842 7.96125 3.55533 10.2593C3.5552 10.2598 3.5552 10.2604 3.5552 10.261C3.54591 10.3786 3.54102 10.4974 3.54102 10.6174ZM8.01117 14.1628C6.13568 14.1628 4.59593 12.6989 4.47387 10.8539C4.57367 10.895 4.6621 10.9493 4.76301 11.0113C5.03576 11.1792 5.37541 11.3882 6.00726 11.3882C6.63911 11.3882 6.97864 11.1793 7.25151 11.0114C7.47766 10.8722 7.64094 10.7717 8.01105 10.7717C8.38116 10.7717 8.54456 10.8722 8.77071 11.0114C9.04358 11.1792 9.38324 11.3882 10.0151 11.3882C10.6469 11.3882 10.9866 11.1793 11.2595 11.0114C11.3604 10.9493 11.4488 10.895 11.5485 10.8539C11.4265 12.6989 9.88678 14.1628 8.01117 14.1628ZM8.01117 7.07206C9.72228 7.07206 11.1542 8.2905 11.4848 9.90535C11.1723 9.97947 10.9581 10.1108 10.7747 10.2236C10.5486 10.3628 10.3852 10.4633 10.0151 10.4633C9.64498 10.4633 9.48157 10.3628 9.25542 10.2236C8.98255 10.0557 8.64302 9.84664 8.01105 9.84664C7.3792 9.84664 7.03967 10.0557 6.7668 10.2236C6.54065 10.3628 6.37724 10.4633 6.00726 10.4633C5.63715 10.4633 5.47375 10.3628 5.2476 10.2236C5.06425 10.1107 4.85021 9.97935 4.53771 9.90535C4.86831 8.2905 6.30019 7.07206 8.01117 7.07206Z" fill="#1D1D1D"></path></g><defs><clipPath id="clip0_500_4810"><rect width="16" height="16.0313" fill="white" transform="translate(0 0.983276)"></rect></clipPath></defs></svg>