<svg xmlns="http://www.w3.org/2000/svg" width="16" height="17" viewBox="0 0 16 17" fill="none"><g clip-path="url(#clip0_1036_27376)"><path d="M15.9999 6.76195C16.0119 4.74327 14.2194 3.12484 12.2129 3.34231C10.4651 -0.84412 5.52873 -0.842308 3.78182 3.34197C0.534494 3.01764 -1.29271 7.01783 1.07654 9.25951C1.75399 11.9255 4.99825 13.1506 7.5285 12.5607V15.357C7.5285 15.6159 7.73841 15.8258 7.99732 15.8258C8.25623 15.8258 8.46614 15.6159 8.46614 15.357V12.5607C10.9986 13.1518 14.2491 11.9217 14.9203 9.25054C15.6227 8.61407 15.9966 7.70171 15.9999 6.76195ZM5.32908 2.54119C6.76107 0.658978 9.23369 0.658853 10.6656 2.54123C11.8432 3.98935 12.1448 6.37505 11.4725 8.18285C10.0888 8.44107 8.72452 9.22237 7.99732 10.4055C7.27027 9.22244 5.90563 8.44095 4.52202 8.18281C3.84999 6.37455 4.15144 3.9896 5.32908 2.54119ZM3.43558 4.26158C3.44602 4.26158 3.45643 4.26214 3.46687 4.26226C3.14338 5.46166 3.15254 6.87396 3.50293 8.07411C2.83174 8.05773 2.15517 8.14893 1.50645 8.34865C0.16072 6.75451 1.3478 4.24367 3.43558 4.26158ZM4.01889 11.2916C3.00177 10.8187 2.29397 10.0618 2.02496 9.17671C4.05164 8.6091 6.86756 9.51001 7.51165 11.5609C7.50828 11.5752 7.50456 11.5894 7.50134 11.6036C6.34486 11.8906 5.07248 11.7814 4.01889 11.2916ZM11.9758 11.2916C10.9221 11.7814 9.64985 11.8907 8.49333 11.6036C8.49014 11.5894 8.48639 11.5752 8.48302 11.5609C9.12796 9.50948 11.9422 8.60956 13.9697 9.17671C13.7007 10.0618 12.9929 10.8187 11.9758 11.2916ZM12.492 8.07411C12.8422 6.87453 12.8512 5.46141 12.5278 4.26233C14.6321 4.21463 15.8458 6.74201 14.491 8.3495C13.8415 8.14922 13.164 8.05776 12.492 8.07411Z" fill="#1D1D1D"></path></g><defs><clipPath id="clip0_1036_27376"><rect width="16" height="16" fill="white" transform="translate(0 0.0144043)"></rect></clipPath></defs></svg>